<svg width="192" height="98" viewBox="0 0 192 98" fill="none" xmlns="http://www.w3.org/2000/svg">
<g filter="url(#filter0_d_20_89)">
<rect x="20" y="10" width="147" height="48" rx="24" fill="#22A75D"/>
</g>
<path d="M57.0381 28.9443H58.9521V37.1748H61.7412V39H57.0381V28.9443ZM70.4502 35.8213H64.4551C64.5417 36.3499 64.7718 36.7715 65.1455 37.0859C65.5238 37.3958 66.0046 37.5508 66.5879 37.5508C67.2852 37.5508 67.8844 37.307 68.3857 36.8193L69.958 37.5576C69.5661 38.1136 69.0967 38.526 68.5498 38.7949C68.0029 39.0592 67.3535 39.1914 66.6016 39.1914C65.4349 39.1914 64.4847 38.8245 63.751 38.0908C63.0173 37.3525 62.6504 36.4297 62.6504 35.3223C62.6504 34.1875 63.015 33.2464 63.7441 32.499C64.4779 31.7471 65.3962 31.3711 66.499 31.3711C67.6702 31.3711 68.6227 31.7471 69.3564 32.499C70.0902 33.2464 70.457 34.2354 70.457 35.4658L70.4502 35.8213ZM68.5771 34.3516C68.4541 33.9368 68.2103 33.5996 67.8457 33.3398C67.4857 33.0801 67.0664 32.9502 66.5879 32.9502C66.0684 32.9502 65.6126 33.096 65.2207 33.3877C64.9746 33.57 64.7467 33.8913 64.5371 34.3516H68.5771ZM77.4639 31.5625H79.3232V39H77.4639V38.2139C77.0993 38.5602 76.7324 38.8109 76.3633 38.9658C75.9987 39.1162 75.6022 39.1914 75.1738 39.1914C74.2122 39.1914 73.3805 38.82 72.6787 38.0771C71.9769 37.3298 71.626 36.4023 71.626 35.2949C71.626 34.1465 71.9655 33.2054 72.6445 32.4717C73.3236 31.738 74.1484 31.3711 75.1191 31.3711C75.5658 31.3711 75.985 31.4554 76.377 31.624C76.7689 31.7926 77.1312 32.0456 77.4639 32.3828V31.5625ZM75.502 33.0938C74.9232 33.0938 74.4424 33.2988 74.0596 33.709C73.6768 34.1146 73.4854 34.6364 73.4854 35.2744C73.4854 35.917 73.679 36.4456 74.0664 36.8604C74.4583 37.2751 74.9391 37.4824 75.5088 37.4824C76.0967 37.4824 76.5843 37.2796 76.9717 36.874C77.359 36.4639 77.5527 35.9284 77.5527 35.2676C77.5527 34.6204 77.359 34.0964 76.9717 33.6953C76.5843 33.2943 76.0944 33.0938 75.502 33.0938ZM80.7725 31.5625H82.3721V32.499C82.5452 32.1299 82.7754 31.8496 83.0625 31.6582C83.3496 31.4668 83.6641 31.3711 84.0059 31.3711C84.2474 31.3711 84.5003 31.4349 84.7646 31.5625L84.1836 33.1689C83.9648 33.0596 83.7848 33.0049 83.6436 33.0049C83.3564 33.0049 83.1126 33.1826 82.9121 33.5381C82.7161 33.8936 82.6182 34.5908 82.6182 35.6299L82.625 35.9922V39H80.7725V31.5625ZM85.6943 31.5625H87.5537V32.3213C87.9775 31.9658 88.3604 31.7197 88.7021 31.583C89.0485 31.4417 89.4017 31.3711 89.7617 31.3711C90.5 31.3711 91.1266 31.6286 91.6416 32.1436C92.0745 32.5811 92.291 33.2282 92.291 34.085V39H90.4453V35.7393C90.4453 34.8506 90.4043 34.2604 90.3223 33.9688C90.2448 33.6771 90.1058 33.4561 89.9053 33.3057C89.7093 33.1507 89.4655 33.0732 89.1738 33.0732C88.7956 33.0732 88.4697 33.2008 88.1963 33.4561C87.9274 33.7067 87.7406 34.0553 87.6357 34.502C87.5811 34.7344 87.5537 35.238 87.5537 36.0127V39H85.6943V31.5625ZM99.2021 28.9443H101.075L103.399 35.958L105.758 28.9443H107.604L109.299 39H107.453L106.373 32.6494L104.233 39H102.545L100.433 32.6494L99.332 39H97.4658L99.2021 28.9443ZM114.125 31.3711C114.827 31.3711 115.485 31.5465 116.101 31.8975C116.72 32.2484 117.203 32.7246 117.55 33.3262C117.896 33.9277 118.069 34.5771 118.069 35.2744C118.069 35.9762 117.894 36.6325 117.543 37.2432C117.197 37.8538 116.723 38.3324 116.121 38.6787C115.52 39.0205 114.856 39.1914 114.132 39.1914C113.065 39.1914 112.154 38.8132 111.397 38.0566C110.646 37.2956 110.27 36.3727 110.27 35.2881C110.27 34.126 110.696 33.1576 111.548 32.3828C112.295 31.7083 113.154 31.3711 114.125 31.3711ZM114.152 33.1279C113.574 33.1279 113.09 33.3307 112.703 33.7363C112.32 34.1374 112.129 34.6523 112.129 35.2812C112.129 35.9284 112.318 36.4525 112.696 36.8535C113.079 37.2546 113.562 37.4551 114.146 37.4551C114.729 37.4551 115.214 37.2523 115.602 36.8467C115.989 36.4411 116.183 35.9193 116.183 35.2812C116.183 34.6432 115.991 34.126 115.608 33.7295C115.23 33.3285 114.745 33.1279 114.152 33.1279ZM119.163 31.5625H120.763V32.499C120.936 32.1299 121.166 31.8496 121.453 31.6582C121.74 31.4668 122.055 31.3711 122.396 31.3711C122.638 31.3711 122.891 31.4349 123.155 31.5625L122.574 33.1689C122.355 33.0596 122.175 33.0049 122.034 33.0049C121.747 33.0049 121.503 33.1826 121.303 33.5381C121.107 33.8936 121.009 34.5908 121.009 35.6299L121.016 35.9922V39H119.163V31.5625ZM131.536 35.8213H125.541C125.628 36.3499 125.858 36.7715 126.231 37.0859C126.61 37.3958 127.09 37.5508 127.674 37.5508C128.371 37.5508 128.97 37.307 129.472 36.8193L131.044 37.5576C130.652 38.1136 130.183 38.526 129.636 38.7949C129.089 39.0592 128.439 39.1914 127.688 39.1914C126.521 39.1914 125.571 38.8245 124.837 38.0908C124.103 37.3525 123.736 36.4297 123.736 35.3223C123.736 34.1875 124.101 33.2464 124.83 32.499C125.564 31.7471 126.482 31.3711 127.585 31.3711C128.756 31.3711 129.709 31.7471 130.442 32.499C131.176 33.2464 131.543 34.2354 131.543 35.4658L131.536 35.8213ZM129.663 34.3516C129.54 33.9368 129.296 33.5996 128.932 33.3398C128.572 33.0801 128.152 32.9502 127.674 32.9502C127.154 32.9502 126.699 33.096 126.307 33.3877C126.061 33.57 125.833 33.8913 125.623 34.3516H129.663Z" fill="white"/>
<defs>
<filter id="filter0_d_20_89" x="-5" y="0" width="197" height="98" filterUnits="userSpaceOnUse" color-interpolation-filters="sRGB">
<feFlood flood-opacity="0" result="BackgroundImageFix"/>
<feColorMatrix in="SourceAlpha" type="matrix" values="0 0 0 0 0 0 0 0 0 0 0 0 0 0 0 0 0 0 127 0" result="hardAlpha"/>
<feOffset dy="15"/>
<feGaussianBlur stdDeviation="12.5"/>
<feColorMatrix type="matrix" values="0 0 0 0 0.133333 0 0 0 0 0.654902 0 0 0 0 0.364706 0 0 0 0.25 0"/>
<feBlend mode="normal" in2="BackgroundImageFix" result="effect1_dropShadow_20_89"/>
<feBlend mode="normal" in="SourceGraphic" in2="effect1_dropShadow_20_89" result="shape"/>
</filter>
</defs>
</svg>
