<svg width="155" height="25" viewBox="0 0 155 25" fill="none" xmlns="http://www.w3.org/2000/svg">
<g clip-path="url(#clip0_34_173)">
<path d="M8.89937 10.7179H0L9.39378 29.9999H18.2932L8.89937 10.7179Z" fill="#0B92D2"/>
<path d="M27.1923 5.7738H18.293L28.346 29.9999H37.2453L27.1923 5.7738Z" fill="#137BC0"/>
<path d="M18.293 5.7738H27.1924L18.293 29.9999H9.39363L18.293 5.7738Z" fill="#0E763F"/>
<path fill-rule="evenodd" clip-rule="evenodd" d="M13.2192 19.5854L9.39355 29.9998H18.2929L13.2192 19.5854Z" fill="#FFD100"/>
<path fill-rule="evenodd" clip-rule="evenodd" d="M9.39355 29.9998H18.2929L13.2192 19.5854L9.39355 29.9998Z" fill="#FFD100"/>
<path d="M38.399 0.500122H47.2983L37.0805 29.9999H28.1812L38.399 0.500122Z" fill="#E20613"/>
<path fill-rule="evenodd" clip-rule="evenodd" d="M32.3049 18.0944L28.2561 29.7835L28.346 30H37.2453L37.1555 29.7835L32.3049 18.0944Z" fill="#0E4B9C"/>
<path fill-rule="evenodd" clip-rule="evenodd" d="M37.0805 30L37.1555 29.7835L32.3049 18.0944L28.2561 29.7835L28.1812 30H37.0805Z" fill="#0E4B9C"/>
<path d="M51.2747 10.92H45.5737V7.69329H61.0986V10.92H55.3977V24.8044H51.2747V10.92Z" fill="white"/>
<path d="M68.1606 25C66.7184 25 65.4204 24.7148 64.2666 24.1444C63.1298 23.5577 62.2391 22.7511 61.5943 21.7244C60.9496 20.6977 60.6272 19.5326 60.6272 18.2288C60.6272 16.9251 60.9496 15.76 61.5943 14.7333C62.2391 13.7066 63.1298 12.9081 64.2666 12.3377C65.4204 11.7511 66.7184 11.4577 68.1606 11.4577C69.6028 11.4577 70.8923 11.7511 72.0291 12.3377C73.1659 12.9081 74.0567 13.7066 74.7014 14.7333C75.3462 15.76 75.6685 16.9251 75.6685 18.2288C75.6685 19.5326 75.3462 20.6977 74.7014 21.7244C74.0567 22.7511 73.1659 23.5577 72.0291 24.1444C70.8923 24.7148 69.6028 25 68.1606 25ZM68.1606 21.8711C69.1786 21.8711 70.01 21.5451 70.6548 20.8933C71.3165 20.2251 71.6473 19.337 71.6473 18.2288C71.6473 17.1207 71.3165 16.2407 70.6548 15.5888C70.01 14.9207 69.1786 14.5866 68.1606 14.5866C67.1426 14.5866 66.3027 14.9207 65.641 15.5888C64.9793 16.2407 64.6484 17.1207 64.6484 18.2288C64.6484 19.337 64.9793 20.2251 65.641 20.8933C66.3027 21.5451 67.1426 21.8711 68.1606 21.8711Z" fill="white"/>
<path d="M84.2015 19.6466L82.2927 21.4555V24.8044H78.3224V6.66663H82.2927V16.9333L88.0954 11.6533H92.8292L87.1283 17.2266L93.3382 24.8044H88.5281L84.2015 19.6466Z" fill="white"/>
<path d="M103.347 11.4577C105.043 11.4577 106.409 11.9466 107.444 12.9244C108.496 13.9022 109.022 15.3526 109.022 17.2755V24.8044H105.052V17.8622C105.052 16.8192 104.814 16.0451 104.339 15.54C103.864 15.0185 103.177 14.7577 102.278 14.7577C101.277 14.7577 100.479 15.0592 99.8854 15.6622C99.2916 16.2488 98.9947 17.1288 98.9947 18.3022V24.8044H95.0244V11.6533H98.8165V13.1933C99.3425 12.6392 99.9957 12.2155 100.776 11.9222C101.557 11.6126 102.414 11.4577 103.347 11.4577Z" fill="white"/>
<path d="M126.183 18.2777C126.183 18.3266 126.157 18.6688 126.106 19.3044H115.748C115.935 20.1192 116.376 20.7629 117.071 21.2355C117.767 21.7081 118.632 21.9444 119.667 21.9444C120.38 21.9444 121.008 21.8466 121.551 21.6511C122.111 21.4392 122.628 21.1133 123.103 20.6733L125.216 22.8733C123.926 24.2911 122.043 25 119.566 25C118.022 25 116.656 24.7148 115.468 24.1444C114.28 23.5577 113.364 22.7511 112.719 21.7244C112.075 20.6977 111.752 19.5326 111.752 18.2288C111.752 16.9414 112.066 15.7844 112.694 14.7577C113.339 13.7148 114.212 12.9081 115.315 12.3377C116.435 11.7511 117.682 11.4577 119.057 11.4577C120.397 11.4577 121.61 11.7348 122.696 12.2888C123.782 12.8429 124.63 13.6414 125.241 14.6844C125.869 15.7111 126.183 16.9088 126.183 18.2777ZM119.082 14.3422C118.183 14.3422 117.428 14.5866 116.817 15.0755C116.206 15.5644 115.833 16.2326 115.697 17.08H122.441C122.306 16.2488 121.932 15.5888 121.322 15.1C120.711 14.5948 119.964 14.3422 119.082 14.3422Z" fill="white"/>
<path d="M132.618 13.3888C133.093 12.7533 133.729 12.2726 134.527 11.9466C135.341 11.6207 136.275 11.4577 137.327 11.4577V14.9777C136.885 14.9451 136.588 14.9288 136.436 14.9288C135.299 14.9288 134.408 15.2385 133.763 15.8577C133.119 16.4607 132.796 17.3733 132.796 18.5955V24.8044H128.826V11.6533H132.618V13.3888Z" fill="white"/>
<path d="M144.344 25C143.207 25 142.095 24.8696 141.01 24.6088C139.924 24.3318 139.058 23.9896 138.414 23.5822L139.737 20.8444C140.348 21.2192 141.086 21.5288 141.951 21.7733C142.817 22.0014 143.665 22.1155 144.496 22.1155C146.176 22.1155 147.016 21.7163 147.016 20.9177C147.016 20.5429 146.787 20.274 146.329 20.1111C145.871 19.9481 145.166 19.8096 144.216 19.6955C143.096 19.5326 142.172 19.3451 141.442 19.1333C140.713 18.9214 140.076 18.5466 139.533 18.0088C139.007 17.4711 138.744 16.7051 138.744 15.7111C138.744 14.88 138.99 14.1466 139.482 13.5111C139.991 12.8592 140.721 12.354 141.671 11.9955C142.638 11.637 143.775 11.4577 145.082 11.4577C146.049 11.4577 147.007 11.5637 147.958 11.7755C148.925 11.9711 149.722 12.2481 150.35 12.6066L149.026 15.32C147.822 14.6681 146.507 14.3422 145.082 14.3422C144.233 14.3422 143.597 14.4563 143.173 14.6844C142.749 14.9126 142.537 15.2059 142.537 15.5644C142.537 15.9718 142.766 16.257 143.224 16.42C143.682 16.5829 144.411 16.7377 145.412 16.8844C146.532 17.0637 147.449 17.2592 148.161 17.4711C148.874 17.6666 149.493 18.0333 150.019 18.5711C150.545 19.1088 150.808 19.8585 150.808 20.82C150.808 21.6348 150.554 22.36 150.044 22.9955C149.535 23.6311 148.789 24.1281 147.805 24.4866C146.838 24.8288 145.684 25 144.344 25Z" fill="white"/>
</g>
<defs>
<clipPath id="clip0_34_173">
<rect width="155" height="25" fill="white"/>
</clipPath>
</defs>
</svg>
